<svg width="100" height="100" viewBox="0 0 100 100" fill="none" xmlns="http://www.w3.org/2000/svg">
<path d="M50.3081 50.0189C50.3081 40.8318 57.7561 33.3459 66.9811 33.3459C76.1682 33.3459 83.654 40.794 83.654 50.0189C83.654 59.2061 76.206 66.6919 66.9811 66.6919C57.7939 66.6919 50.3081 59.2061 50.3081 50.0189Z" fill="#1ABCFE"/>
<path d="M17 83.327C17 74.1399 24.448 66.6541 33.673 66.6541H50.3459V83.327C50.3459 92.5142 42.8979 100 33.673 100C24.448 100 17 92.552 17 83.327Z" fill="#0ACF83"/>
<path d="M50.3081 0.0378072V33.3459H66.9811C76.1682 33.3459 83.654 25.8979 83.654 16.673C83.654 7.48582 76.206 0 66.9811 0H50.3081V0.0378072Z" fill="#FF7262"/>
<path d="M17 16.7108C17 25.898 24.448 33.3838 33.673 33.3838H50.3459V0.0378418H33.673C24.448 0.0378418 17 7.48586 17 16.7108Z" fill="#F24E1E"/>
<path d="M17 50.0189C17 59.2061 24.448 66.6919 33.673 66.6919H50.3459V33.3459H33.673C24.448 33.3459 17 40.8318 17 50.0189Z" fill="#A259FF"/>
</svg>
