<svg width="100" height="100" viewBox="0 0 100 100" fill="none" xmlns="http://www.w3.org/2000/svg">
<path d="M1.40909 42.3831V48.2013H0.704545V42.3831H1.40909ZM3.40128 45.5763V48.2013H2.73082V43.8377H3.37855V44.5195H3.43537C3.53764 44.2979 3.69295 44.1199 3.90128 43.9854C4.10961 43.849 4.37855 43.7808 4.7081 43.7808C5.00355 43.7808 5.26207 43.8414 5.48366 43.9627C5.70526 44.082 5.8776 44.2638 6.00071 44.5081C6.12382 44.7505 6.18537 45.0574 6.18537 45.4286V48.2013H5.51491V45.474C5.51491 45.1312 5.4259 44.8642 5.24787 44.6729C5.06984 44.4797 4.82552 44.3831 4.51491 44.3831C4.3009 44.3831 4.10961 44.4295 3.94105 44.5223C3.77438 44.6151 3.64276 44.7505 3.54616 44.9286C3.44957 45.1066 3.40128 45.3225 3.40128 45.5763ZM9.18324 48.2922C8.77415 48.2922 8.42188 48.1956 8.12642 48.0024C7.83097 47.8092 7.60369 47.5431 7.4446 47.2041C7.28551 46.8651 7.20597 46.4778 7.20597 46.0422C7.20597 45.599 7.28741 45.2079 7.45028 44.8689C7.61506 44.528 7.84422 44.2619 8.13778 44.0706C8.43324 43.8774 8.77794 43.7808 9.17188 43.7808C9.47869 43.7808 9.75521 43.8377 10.0014 43.9513C10.2476 44.0649 10.4493 44.224 10.6065 44.4286C10.7637 44.6331 10.8613 44.8717 10.8991 45.1445H10.2287C10.1776 44.9456 10.0639 44.7695 9.88778 44.6161C9.71354 44.4608 9.47869 44.3831 9.18324 44.3831C8.92188 44.3831 8.69271 44.4513 8.49574 44.5877C8.30066 44.7221 8.1482 44.9125 8.03835 45.1587C7.9304 45.403 7.87642 45.6899 7.87642 46.0195C7.87642 46.3566 7.92945 46.6502 8.03551 46.9002C8.14347 47.1502 8.29498 47.3443 8.49006 47.4825C8.68703 47.6208 8.91809 47.6899 9.18324 47.6899C9.35748 47.6899 9.51562 47.6596 9.65767 47.599C9.79972 47.5384 9.91998 47.4513 10.0185 47.3377C10.117 47.224 10.187 47.0877 10.2287 46.9286H10.8991C10.8613 47.1861 10.7675 47.4181 10.6179 47.6246C10.4702 47.8291 10.2741 47.992 10.0298 48.1132C9.78741 48.2325 9.50521 48.2922 9.18324 48.2922ZM12.5497 42.3831V48.2013H11.8793V42.3831H12.5497ZM16.5277 46.4172V43.8377H17.1982V48.2013H16.5277V47.4627H16.4822C16.38 47.6842 16.2209 47.8727 16.005 48.028C15.7891 48.1814 15.5163 48.2581 15.1868 48.2581C14.9141 48.2581 14.6716 48.1985 14.4595 48.0791C14.2474 47.9579 14.0807 47.7761 13.9595 47.5337C13.8383 47.2894 13.7777 46.9816 13.7777 46.6104V43.8377H14.4482V46.5649C14.4482 46.8831 14.5372 47.1369 14.7152 47.3263C14.8951 47.5157 15.1243 47.6104 15.4027 47.6104C15.5694 47.6104 15.7389 47.5678 15.9112 47.4825C16.0855 47.3973 16.2313 47.2666 16.3487 47.0905C16.468 46.9144 16.5277 46.6899 16.5277 46.4172ZM20.0739 48.2922C19.7102 48.2922 19.3892 48.2003 19.1108 48.0166C18.8324 47.831 18.6146 47.5697 18.4574 47.2325C18.3002 46.8935 18.2216 46.493 18.2216 46.0308C18.2216 45.5725 18.3002 45.1748 18.4574 44.8377C18.6146 44.5005 18.8333 44.2401 19.1136 44.0564C19.3939 43.8727 19.7178 43.7808 20.0852 43.7808C20.3693 43.7808 20.5938 43.8282 20.7585 43.9229C20.9252 44.0157 21.0521 44.1217 21.1392 44.2411C21.2282 44.3585 21.2973 44.4551 21.3466 44.5308H21.4034V42.3831H22.0739V48.2013H21.4261V47.5308H21.3466C21.2973 47.6104 21.2273 47.7108 21.1364 47.832C21.0455 47.9513 20.9157 48.0583 20.7472 48.153C20.5786 48.2458 20.3542 48.2922 20.0739 48.2922ZM20.1648 47.6899C20.4337 47.6899 20.661 47.6199 20.8466 47.4797C21.0322 47.3377 21.1733 47.1416 21.2699 46.8916C21.3665 46.6397 21.4148 46.349 21.4148 46.0195C21.4148 45.6937 21.3674 45.4087 21.2727 45.1644C21.178 44.9181 21.0379 44.7269 20.8523 44.5905C20.6667 44.4522 20.4375 44.3831 20.1648 44.3831C19.8807 44.3831 19.6439 44.456 19.4545 44.6019C19.267 44.7458 19.1259 44.9418 19.0312 45.1899C18.9384 45.4361 18.892 45.7127 18.892 46.0195C18.892 46.3301 18.9394 46.6123 19.0341 46.8661C19.1307 47.118 19.2727 47.3187 19.4602 47.4683C19.6496 47.6161 19.8845 47.6899 20.1648 47.6899ZM25.2244 48.2922C24.804 48.2922 24.4413 48.1994 24.1364 48.0138C23.8333 47.8263 23.5994 47.5649 23.4347 47.2297C23.2718 46.8926 23.1903 46.5005 23.1903 46.0536C23.1903 45.6066 23.2718 45.2127 23.4347 44.8717C23.5994 44.5289 23.8286 44.2619 24.1222 44.0706C24.4176 43.8774 24.7623 43.7808 25.1562 43.7808C25.3835 43.7808 25.608 43.8187 25.8295 43.8945C26.0511 43.9702 26.2528 44.0933 26.4347 44.2638C26.6165 44.4324 26.7614 44.6558 26.8693 44.9342C26.9773 45.2127 27.0312 45.5555 27.0312 45.9627V46.2467H23.6676V45.6672H26.3494C26.3494 45.421 26.3002 45.2013 26.2017 45.0081C26.1051 44.8149 25.9669 44.6625 25.7869 44.5507C25.6089 44.439 25.3987 44.3831 25.1562 44.3831C24.8892 44.3831 24.6581 44.4494 24.4631 44.582C24.2699 44.7127 24.1212 44.8831 24.017 45.0933C23.9129 45.3036 23.8608 45.5289 23.8608 45.7695V46.1558C23.8608 46.4854 23.9176 46.7647 24.0312 46.9939C24.1468 47.2212 24.3068 47.3945 24.5114 47.5138C24.7159 47.6312 24.9536 47.6899 25.2244 47.6899C25.4006 47.6899 25.5597 47.6653 25.7017 47.6161C25.8456 47.5649 25.9697 47.4892 26.0739 47.3888C26.178 47.2865 26.2585 47.1596 26.3153 47.0081L26.9631 47.1899C26.8949 47.4096 26.7803 47.6028 26.6193 47.7695C26.4583 47.9342 26.2595 48.063 26.0227 48.1558C25.786 48.2467 25.5199 48.2922 25.2244 48.2922ZM31.142 44.8149L30.5398 44.9854C30.5019 44.885 30.446 44.7875 30.3722 44.6928C30.3002 44.5962 30.2017 44.5166 30.0767 44.4541C29.9517 44.3916 29.7917 44.3604 29.5966 44.3604C29.3295 44.3604 29.107 44.4219 28.929 44.545C28.7528 44.6663 28.6648 44.8206 28.6648 45.0081C28.6648 45.1748 28.7254 45.3064 28.8466 45.403C28.9678 45.4996 29.1572 45.5801 29.4148 45.6445L30.0625 45.8036C30.4527 45.8983 30.7434 46.0431 30.9347 46.2382C31.1259 46.4314 31.2216 46.6805 31.2216 46.9854C31.2216 47.2354 31.1496 47.4589 31.0057 47.6558C30.8636 47.8528 30.6648 48.0081 30.4091 48.1217C30.1534 48.2354 29.8561 48.2922 29.517 48.2922C29.072 48.2922 28.7036 48.1956 28.4119 48.0024C28.1203 47.8092 27.9356 47.5271 27.858 47.1558L28.4943 46.9967C28.5549 47.2316 28.6695 47.4077 28.8381 47.5252C29.0085 47.6426 29.2311 47.7013 29.5057 47.7013C29.8182 47.7013 30.0663 47.635 30.25 47.5024C30.4356 47.368 30.5284 47.207 30.5284 47.0195C30.5284 46.868 30.4754 46.7411 30.3693 46.6388C30.2633 46.5346 30.1004 46.457 29.8807 46.4058L29.1534 46.2354C28.7538 46.1407 28.4602 45.9939 28.2727 45.795C28.0871 45.5943 27.9943 45.3433 27.9943 45.0422C27.9943 44.796 28.0634 44.5782 28.2017 44.3888C28.3419 44.1994 28.5322 44.0507 28.7727 43.9428C29.0152 43.8348 29.2898 43.7808 29.5966 43.7808C30.0284 43.7808 30.3674 43.8755 30.6136 44.0649C30.8617 44.2543 31.0379 44.5043 31.142 44.8149Z" fill="#989696"/>
<path d="M0 71.0383H3.29458V58.0288L8.39464 69.3699C8.99662 70.7427 9.82028 71.2284 11.4359 71.2284C13.0515 71.2284 13.8434 70.7427 14.4454 69.3699L19.5454 58.0288V71.0383H22.84V58.05C22.84 56.7828 22.3331 56.1703 21.2877 55.8536C18.7851 55.0721 17.1062 55.748 16.346 57.4375L11.3408 68.6307L6.49405 57.4375C5.76549 55.748 4.05479 55.0721 1.55229 55.8536C0.506872 56.1703 0 56.7828 0 58.05V71.0383Z" fill="#005C87"/>
<path d="M25.5796 60.449H28.8728V67.6164C28.842 68.0058 28.998 68.9197 30.8023 68.9481C31.7233 68.9625 37.9088 68.9481 37.9667 68.9481V60.4143H41.2674C41.2831 60.4143 41.2643 72.052 41.2646 72.1016C41.2831 74.9718 37.7033 75.5951 36.0537 75.6434H25.6509V73.4269C25.6691 73.4269 36.0458 73.4294 36.0719 73.4266C38.1923 73.2027 37.9419 72.1488 37.9416 71.7941V70.9301H30.9393C27.6814 70.8999 25.6068 69.4781 25.5811 67.8425C25.5788 67.6909 25.6514 60.5208 25.5796 60.449Z" fill="#005C87"/>
<path d="M43.8066 71.0383H53.2784C54.387 71.0383 55.4642 70.8061 56.3195 70.4048C57.7449 69.7501 58.4419 68.863 58.4419 67.7015V65.2939C58.4419 64.3435 57.6499 63.4565 56.0976 62.8651C55.2741 62.5484 54.2605 62.3794 53.2784 62.3794H49.2869C47.9565 62.3794 47.3228 61.9782 47.1645 61.0911C47.1327 60.9856 47.1327 60.9011 47.1327 60.7955V59.2961C47.1327 59.2115 47.1327 59.127 47.1645 59.0215C47.3228 58.3457 47.6715 58.1556 48.8433 58.0501C48.9385 58.0501 49.0653 58.0288 49.1602 58.0288H58.5686V55.8325H49.3187C47.988 55.8325 47.2913 55.917 46.6576 56.107C44.6935 56.7195 43.8385 57.6909 43.8385 59.3805V61.3023C43.8385 62.7807 45.5173 64.0479 48.3367 64.3435C48.6532 64.3646 48.9701 64.3858 49.2869 64.3858H52.7082C52.8349 64.3858 52.9616 64.3858 53.0565 64.4069C54.102 64.4914 54.5455 64.6814 54.8623 65.0616C55.0524 65.2516 55.1158 65.4417 55.1158 65.6529V67.5748C55.1158 67.8071 54.9573 68.1028 54.6404 68.3562C54.3554 68.6096 53.8803 68.7785 53.2466 68.8209C53.1199 68.8209 53.025 68.8419 52.8983 68.8419H43.8066V71.0383Z" fill="#E4830F"/>
<path d="M78.9941 67.2157C78.9941 69.4755 80.6732 70.7427 84.0626 70.9962C84.3795 71.0173 84.6963 71.0383 85.0131 71.0383H93.5978V68.8419H84.9498C83.0172 68.8419 82.2887 68.3562 82.2887 67.1947V55.8325H78.9941V67.2157Z" fill="#E4830F"/>
<path d="M60.5444 67.331V59.5007C60.5444 57.5114 61.9413 56.3051 64.703 55.9241C64.9885 55.8818 65.3061 55.8607 65.5917 55.8607H71.8454C72.1627 55.8607 72.4483 55.8818 72.7659 55.9241C75.5276 56.3051 76.9242 57.5114 76.9242 59.5007V67.331C76.9242 68.9449 76.331 69.8087 74.9642 70.3714L78.2092 73.3008H74.3839L71.7587 70.9308L69.1153 71.098H65.5917C64.9885 71.098 64.3538 71.0134 63.6553 70.8229C61.5603 70.2515 60.5444 69.151 60.5444 67.331ZM64.1001 67.1406C64.1001 67.2464 64.1319 67.3522 64.1637 67.4792C64.3543 68.3892 65.2112 68.8971 66.5126 68.8971H69.5057L66.7564 66.415H70.5817L72.9796 68.5798C73.4213 68.3442 73.7123 67.9839 73.8138 67.5216C73.8457 67.4157 73.8457 67.3099 73.8457 67.2041V59.6912C73.8457 59.6065 73.8457 59.5007 73.8138 59.3949C73.6232 58.5484 72.7661 58.0616 71.4965 58.0616H66.5126C65.0527 58.0616 64.1001 58.6965 64.1001 59.6912V67.1406Z" fill="#E4830F"/>
<path d="M96.496 52.1891C94.4711 52.1339 92.9239 52.3223 91.6015 52.8802C91.2256 53.0387 90.6263 53.0426 90.565 53.5136C90.7718 53.7303 90.8036 54.0536 90.9681 54.3197C91.2836 54.831 91.8167 55.5157 92.2923 55.8746C92.8123 56.2669 93.3477 56.6866 93.905 57.0264C94.896 57.6308 96.0027 57.9757 96.9568 58.5811C97.5194 58.938 98.0779 59.3877 98.6266 59.7904C98.8978 59.9893 99.0802 60.2991 99.4329 60.4238C99.4329 60.4046 99.4329 60.3854 99.4329 60.3662C99.2475 60.1303 99.1997 59.8061 99.0296 59.56C98.7803 59.3106 98.5307 59.0609 98.2813 58.8114C97.5494 57.8399 96.6202 56.9866 95.6325 56.2777C94.8447 55.7123 93.082 54.9485 92.7531 54.0319C92.7338 54.0127 92.7146 53.9934 92.6956 53.9743C93.2538 53.9114 93.9078 53.7093 94.4232 53.5712C95.289 53.3389 96.0627 53.3991 96.9568 53.1681C97.3598 53.0529 97.7628 52.9378 98.1661 52.8225C98.1661 52.7458 98.1661 52.669 98.1661 52.5922C97.7141 52.1284 97.3919 51.5146 96.8991 51.095C95.6097 49.9971 94.2023 48.9002 92.7531 47.9853C91.9493 47.4782 90.956 47.1482 90.1043 46.7185C89.8177 46.5738 89.3146 46.4989 89.1253 46.2578C88.6776 45.6872 88.4339 44.9643 88.0889 44.2998C87.3659 42.9081 86.6561 41.3878 86.0158 39.9235C85.5791 38.9248 85.2936 37.9399 84.7489 37.0443C82.1345 32.7452 79.3197 30.1505 74.9595 27.6002C74.0324 27.0579 72.9152 26.8434 71.7351 26.5635C71.1017 26.5253 70.468 26.4868 69.8348 26.4486C69.448 26.2867 69.046 25.8139 68.683 25.5846C67.2386 24.672 63.5336 22.6874 62.4641 25.2967C61.7889 26.9437 63.4736 28.551 64.0762 29.3855C64.4993 29.9709 65.0408 30.6274 65.343 31.2857C65.5419 31.7185 65.5762 32.1523 65.7463 32.6102C66.165 33.738 66.5293 34.965 67.0706 36.0076C67.3443 36.5348 67.646 37.0907 67.9921 37.5625C68.2043 37.8519 68.5678 37.9791 68.6255 38.4263C68.2697 38.9237 68.2494 39.6962 68.0496 40.3265C67.1499 43.1641 67.4888 46.6913 68.7982 48.7916C69.2002 49.4363 70.1463 50.819 71.447 50.2888C72.5847 49.825 72.3307 48.3889 72.6563 47.1216C72.7302 46.8342 72.6848 46.6231 72.829 46.4307C72.829 46.4497 72.829 46.4689 72.829 46.4882C73.1745 47.179 73.5201 47.8704 73.8656 48.5613C74.633 49.7965 75.9942 51.0876 77.1478 51.9587C77.7461 52.4106 78.2171 53.1917 78.9906 53.4561C78.9906 53.4368 78.9906 53.4176 78.9906 53.3985C78.9713 53.3985 78.9521 53.3985 78.9329 53.3985C78.783 53.1648 78.5486 53.0679 78.3572 52.8802C77.9064 52.4382 77.4054 51.8889 77.0327 51.3829C75.9834 49.9584 75.056 48.3991 74.2112 46.7763C73.8077 46.0012 73.4572 45.1462 73.117 44.3576C72.986 44.0533 72.9872 43.5936 72.714 43.4363C72.3415 44.0138 71.7928 44.4815 71.5047 45.1639C71.0439 46.2544 70.9844 47.5849 70.8136 48.9643C70.7127 49.0007 70.7576 48.9756 70.6984 49.022C69.8967 48.8283 69.6145 48.0028 69.3164 47.2945C68.5627 45.503 68.4226 42.6187 69.0863 40.5569C69.2579 40.0235 70.0332 38.3432 69.7197 37.8504C69.5698 37.3586 69.0752 37.0743 68.7982 36.6987C68.4559 36.2341 68.1137 35.6225 67.8769 35.0861C67.2599 33.6895 66.9716 32.1215 66.322 30.7098C66.0116 30.0351 65.4864 29.3521 65.0552 28.7518C64.5778 28.0871 64.0434 27.5979 63.6732 26.7939C63.5416 26.5081 63.3625 26.0509 63.558 25.7575C63.6201 25.5594 63.7078 25.4765 63.9036 25.4119C64.2376 25.1543 65.1678 25.4976 65.5159 25.6423C66.4392 26.0258 67.2096 26.3911 67.9921 26.9091C68.3679 27.1582 68.7474 27.6397 69.2012 27.7729C69.3741 27.7729 69.5467 27.7729 69.7197 27.7729C70.5301 27.9594 71.4385 27.8308 72.1955 28.061C73.5344 28.4676 74.7338 29.1005 75.8236 29.7885C79.1427 31.8842 81.8562 34.8673 83.7125 38.4263C84.0114 38.9992 84.1402 39.5461 84.4034 40.1539C84.9342 41.3794 85.6027 42.6405 86.1309 43.8393C86.6579 45.0348 87.1715 46.2416 87.916 47.2367C88.3077 47.7601 89.82 48.0405 90.5073 48.3309C90.9893 48.5346 91.7785 48.7468 92.2349 49.022C93.1066 49.5474 93.9511 50.1736 94.7685 50.7495C95.1771 51.0374 96.4337 51.6686 96.496 52.1891Z" fill="#005C87"/>
<path fill-rule="evenodd" clip-rule="evenodd" d="M70.7562 30.249C70.3341 30.2416 70.0355 30.2952 69.7197 30.3642C69.7197 30.3835 69.7197 30.4027 69.7197 30.422C69.7387 30.422 69.758 30.422 69.7772 30.422C69.9786 30.8358 70.3344 31.102 70.5832 31.4584C70.7754 31.8617 70.9673 32.2647 71.1592 32.6677C71.1784 32.6485 71.1977 32.6295 71.2169 32.6103C71.5732 32.3588 71.7369 31.9568 71.7351 31.3432C71.592 31.1929 71.5709 31.0043 71.447 30.825C71.2821 30.5861 70.964 30.4502 70.7562 30.249Z" fill="#005C87"/>
<path fill-rule="evenodd" clip-rule="evenodd" d="M95.144 68.7795C95.144 70.2297 96.2903 71.2074 97.572 71.2074C98.8542 71.2074 99.9999 70.2297 99.9999 68.7795C99.9999 67.3292 98.8542 66.3515 97.572 66.3515C96.2903 66.3515 95.144 67.3292 95.144 68.7795ZM99.456 68.7795C99.456 69.8802 98.6145 70.7023 97.572 70.7023C96.5168 70.7023 95.6879 69.8802 95.6879 68.7795C95.6879 67.6787 96.5168 66.8566 97.572 66.8566C98.6145 66.8566 99.456 67.6787 99.456 68.7795ZM98.2261 70.1648H98.7698L97.9734 68.9478C98.4008 68.9025 98.7246 68.6953 98.7246 68.1902C98.7246 67.627 98.3685 67.3941 97.682 67.3941H96.6009V70.1648H97.0671V68.9671H97.5009L98.2261 70.1648ZM97.0671 68.5786V67.7826H97.6045C97.8829 67.7826 98.2195 67.8343 98.2195 68.1577C98.2195 68.5462 97.9152 68.5786 97.5655 68.5786H97.0671Z" fill="#E4830F"/>
</svg>
