<svg width="100" height="100" viewBox="0 0 100 100" fill="none" xmlns="http://www.w3.org/2000/svg">
<path d="M49.9847 9.2218L52.1519 13.2922C52.6391 14.0434 53.1669 14.7082 53.7887 15.3274C55.6114 17.1275 57.3105 19.0486 58.8742 21.0778C62.5462 25.8994 65.0229 31.2539 66.7917 37.0448C67.8525 40.5824 68.4285 44.2112 68.4716 47.8807C68.6493 58.8511 64.8885 68.2709 57.3059 76.0996C56.0725 77.3411 54.74 78.48 53.3217 79.5052C52.5706 79.5052 52.2153 78.9291 51.9057 78.3987C51.3419 77.4153 50.9667 76.3352 50.7993 75.214C50.5328 73.8868 50.3577 72.5596 50.444 71.1892V70.57C50.3831 70.4381 49.7208 9.53394 49.9847 9.2218Z" fill="#599636"/>
<path d="M49.9847 9.0873C49.8959 8.90967 49.807 9.04416 49.7182 9.13044C49.7614 10.0186 49.4518 10.8104 48.9671 11.5666C48.4342 12.3178 47.7287 12.8938 47.0207 13.513C43.0873 16.9186 39.9913 21.0321 37.512 25.6329C34.213 31.8248 32.5128 38.4609 32.0306 45.4471C31.8099 47.967 32.8275 56.859 33.6218 59.4246C35.7889 66.2357 39.6817 71.9429 44.7241 76.8964C45.9625 78.0891 47.2871 79.1956 48.6575 80.2589C49.0559 80.2589 49.099 79.9036 49.1904 79.6397C49.3651 79.0749 49.4982 78.4982 49.5888 77.914L50.477 71.2806L49.9847 9.0873Z" fill="#6CAC48"/>
<path d="M52.1518 82.2001C52.2407 81.185 52.7279 80.3425 53.2583 79.5025C52.7254 79.2818 52.3295 78.8427 52.0199 78.353C51.7529 77.8892 51.5319 77.4005 51.3601 76.8938C50.7409 75.0362 50.6089 73.0873 50.4313 71.1891V70.0396C50.2105 70.2172 50.1648 71.7195 50.1648 71.9428C50.0357 73.949 49.7695 75.9441 49.368 77.9139C49.2361 78.7108 49.1472 79.5051 48.6575 80.2131C48.6575 80.3019 48.6575 80.3907 48.7006 80.5227C49.4974 82.8675 49.7157 85.2554 49.8502 87.6891V88.5772C49.8502 89.638 49.807 89.4147 50.6876 89.77C51.0429 89.9019 51.4388 89.9476 51.794 90.2115C52.0605 90.2115 52.1036 89.9907 52.1036 89.8131L51.9717 88.3539V84.2835C51.9285 83.573 52.0605 82.8675 52.1493 82.2026L52.1518 82.2001Z" fill="#C2BFBF"/>
</svg>
