<svg width="100" height="100" viewBox="0 0 100 100" fill="none" xmlns="http://www.w3.org/2000/svg">
<path d="M5.82003 30.3522C-2.88323 39.3943 -0.935944 67.052 5.82003 71.7926C7.24125 74.0161 8.75838 74.6941 12.2624 75.275H22.3614L23.5061 63.9018C25.0576 54.0703 27.2773 51.4742 36.1168 48.983H63.8018C69.8224 48.028 71.3812 45.68 73.6525 40.5698C74.5547 28.5344 74.6966 21.6674 73.7266 9.63201C72.0439 6.1776 70.6917 4.46091 66.2395 2.49311C54.2283 -0.834765 46.9306 -0.827307 32.9827 2.49311C29.1107 3.5856 26.1179 8.18361 25.6696 9.63201C25.2214 11.0804 25.6696 22.8651 25.6696 22.8651H49.6981V26.1734H15.3966C10.5949 26.9255 8.46565 27.8137 5.82003 30.3522Z" fill="url(#paint0_linear_26_133)"/>
<circle cx="36.2911" cy="12.0696" r="4.70123" fill="white"/>
<path d="M93.6822 69.6478C102.385 60.6057 100.438 32.948 93.6822 28.2074C92.261 25.9839 90.7438 25.3059 87.2398 24.725H76.2644L75.5679 37.0874C74.0165 46.919 72.2191 48.5258 63.3796 51.017H35.7004C29.9486 52.5841 28.2152 54.6128 25.9439 59.723C23.8544 71.7372 24.8056 78.3326 25.7756 90.368C27.4583 93.8224 28.8105 95.5391 33.2627 97.5069C45.2739 100.835 52.5716 100.827 66.5195 97.5069C70.3915 96.4144 73.3843 91.8164 73.8326 90.368C74.2808 88.9196 73.8326 77.1349 73.8326 77.1349H49.8041V73.8266H84.1056C88.9073 73.0745 91.0365 72.1863 93.6822 69.6478Z" fill="url(#paint1_linear_26_133)"/>
<circle cx="63.2111" cy="87.9304" r="4.70123" transform="rotate(-180 63.2111 87.9304)" fill="white"/>
<defs>
<linearGradient id="paint0_linear_26_133" x1="9.60921e-08" y1="55.1959" x2="74.5231" y2="40.2216" gradientUnits="userSpaceOnUse">
<stop offset="1" stop-color="#2F6D9E"/>
</linearGradient>
<linearGradient id="paint1_linear_26_133" x1="99.5022" y1="44.8041" x2="24.9791" y2="59.7784" gradientUnits="userSpaceOnUse">
<stop stop-color="#FFD841"/>
<stop offset="1" stop-color="#FFE974"/>
</linearGradient>
</defs>
</svg>
