<svg width="100" height="100" viewBox="0 0 100 100" fill="none" xmlns="http://www.w3.org/2000/svg">
<path d="M93.76 50.0859C93.76 44.2722 86.4795 38.7626 75.3172 35.346C77.8931 23.969 76.7482 14.9175 71.7037 12.0196C70.541 11.3399 69.1815 11.0179 67.6967 11.0179V15.007C68.5196 15.007 69.1815 15.168 69.736 15.4721C72.1688 16.8674 73.2242 22.1802 72.4014 29.0135C72.2046 30.695 71.8826 32.466 71.4891 34.2727C67.983 33.414 64.1549 32.7522 60.13 32.3229C57.7151 29.0135 55.2107 26.0083 52.6885 23.3787C58.5201 17.9585 63.9939 14.9891 67.7146 14.9891V11C62.7954 11 56.3556 14.5061 49.8442 20.5881C43.3329 14.5419 36.8931 11.0716 31.9738 11.0716V15.0606C35.6767 15.0606 41.1684 18.0122 47 23.3966C44.4956 26.0262 41.9913 29.0135 39.6121 32.3229C35.5694 32.7522 31.7413 33.414 28.2352 34.2906C27.8237 32.5017 27.5196 30.7666 27.305 29.103C26.4642 22.2696 27.5017 16.9568 29.9167 15.5436C30.4533 15.2216 31.151 15.0785 31.9738 15.0785V11.0894C30.4712 11.0894 29.1117 11.4114 27.9311 12.0912C22.9044 14.9891 21.7775 24.0227 24.3713 35.3639C13.2448 38.7984 6 44.2901 6 50.0859C6 55.8996 13.2805 61.4092 24.4428 64.8259C21.8669 76.2028 23.0118 85.2543 28.0563 88.1522C29.219 88.832 30.5785 89.154 32.0811 89.154C37.0004 89.154 43.4402 85.6479 49.9516 79.5658C56.4629 85.6121 62.9027 89.0824 67.822 89.0824C69.3246 89.0824 70.6841 88.7604 71.8647 88.0807C76.8913 85.1828 78.0183 76.1492 75.4245 64.808C86.5152 61.3913 93.76 55.8817 93.76 50.0859ZM70.4694 38.1544C69.8076 40.462 68.9847 42.8412 68.0545 45.2203C67.3211 43.7892 66.5519 42.3582 65.7111 40.9271C64.8883 39.4961 64.0118 38.1008 63.1352 36.7413C65.6754 37.1169 68.1261 37.582 70.4694 38.1544ZM62.2766 57.2055C60.8813 59.6204 59.4502 61.9101 57.9655 64.0388C55.3002 64.2714 52.599 64.3966 49.88 64.3966C47.1789 64.3966 44.4777 64.2714 41.8303 64.0567C40.3455 61.928 38.8966 59.6562 37.5013 57.2591C36.1418 54.9158 34.9075 52.5366 33.7805 50.1396C34.8896 47.7426 36.1418 45.3455 37.4834 43.0022C38.8787 40.5872 40.3098 38.2975 41.7945 36.1688C44.4598 35.9363 47.161 35.8111 49.88 35.8111C52.5811 35.8111 55.2823 35.9363 57.9297 36.1509C59.4145 38.2797 60.8634 40.5515 62.2587 42.9485C63.6182 45.2919 64.8525 47.671 65.9795 50.068C64.8525 52.4651 63.6182 54.8621 62.2766 57.2055ZM68.0545 54.88C69.0205 57.277 69.8434 59.6741 70.5231 61.9995C68.1797 62.572 65.7112 63.055 63.1531 63.4306C64.0297 62.0532 64.9062 60.64 65.729 59.1911C66.5519 57.76 67.3211 56.3111 68.0545 54.88ZM49.9158 73.9668C48.2522 72.2495 46.5886 70.3355 44.9428 68.2426C46.5528 68.3141 48.1985 68.3678 49.8621 68.3678C51.5436 68.3678 53.2072 68.332 54.8351 68.2426C53.2251 70.3355 51.5615 72.2495 49.9158 73.9668ZM36.6069 63.4306C34.0667 63.055 31.616 62.5899 29.2727 62.0174C29.9345 59.7098 30.7574 57.3307 31.6876 54.9516C32.421 56.3826 33.1902 57.8137 34.031 59.2447C34.8717 60.6758 35.7304 62.0711 36.6069 63.4306ZM49.8263 26.2051C51.49 27.9223 53.1536 29.8364 54.7993 31.9293C53.1893 31.8578 51.5436 31.8041 49.88 31.8041C48.1985 31.8041 46.5349 31.8399 44.9071 31.9293C46.517 29.8364 48.1806 27.9223 49.8263 26.2051ZM36.589 36.7413C35.7125 38.1187 34.8359 39.5318 34.0131 40.9808C33.1902 42.4119 32.421 43.8429 31.6876 45.274C30.7216 42.8769 29.8988 40.4799 29.219 38.1544C31.5624 37.5999 34.031 37.1169 36.589 36.7413ZM20.4001 59.1374C14.0676 56.4363 9.9712 52.8944 9.9712 50.0859C9.9712 47.2775 14.0676 43.7177 20.4001 41.0345C21.9385 40.3726 23.62 39.7823 25.3551 39.2277C26.3748 42.7338 27.7164 46.3831 29.38 50.1217C27.7343 53.8425 26.4106 57.4738 25.4088 60.962C23.6379 60.4075 21.9564 59.7993 20.4001 59.1374ZM30.024 84.6998C27.5912 83.3045 26.5358 77.9917 27.3586 71.1583C27.5554 69.4768 27.8774 67.7059 28.2709 65.8992C31.777 66.7578 35.6051 67.4197 39.63 67.849C42.0449 71.1583 44.5493 74.1636 47.0715 76.7932C41.24 82.2133 35.7661 85.1828 32.0454 85.1828C31.2404 85.1649 30.5606 85.0039 30.024 84.6998ZM72.455 71.0689C73.2958 77.9022 72.2583 83.2151 69.8433 84.6282C69.3067 84.9502 68.609 85.0933 67.7862 85.0933C64.0833 85.0933 58.5916 82.1418 52.76 76.7574C55.2644 74.1278 57.7687 71.1405 60.1479 67.8311C64.1906 67.4018 68.0187 66.7399 71.5248 65.8634C71.9363 67.6701 72.2583 69.4053 72.455 71.0689ZM79.342 59.1374C77.8036 59.7993 76.1221 60.3896 74.387 60.9441C73.3673 57.438 72.0257 53.7888 70.3621 50.0502C72.0078 46.3294 73.3316 42.6981 74.3333 39.2098C76.1043 39.7644 77.7857 40.3726 79.3599 41.0345C85.6924 43.7356 89.7888 47.2775 89.7888 50.0859C89.7709 52.8944 85.6745 56.4542 79.342 59.1374Z" fill="#61DAFB"/>
<path d="M49.8622 58.2609C54.3771 58.2609 58.0372 54.6009 58.0372 50.086C58.0372 45.5711 54.3771 41.911 49.8622 41.911C45.3473 41.911 41.6873 45.5711 41.6873 50.086C41.6873 54.6009 45.3473 58.2609 49.8622 58.2609Z" fill="#61DAFB"/>
</svg>
