<svg width="100" height="100" viewBox="0 0 100 100" fill="none" xmlns="http://www.w3.org/2000/svg">
<path d="M19.8807 93V85.7273H22.3381C22.9063 85.7273 23.3726 85.8243 23.7372 86.0185C24.1018 86.2102 24.3717 86.4742 24.5469 86.8104C24.7221 87.1465 24.8097 87.5289 24.8097 87.9574C24.8097 88.3859 24.7221 88.7659 24.5469 89.0973C24.3717 89.4287 24.103 89.6892 23.7408 89.8786C23.3786 90.0656 22.9157 90.1591 22.3523 90.1591H20.3636V89.3636H22.3239C22.7121 89.3636 23.0246 89.3068 23.2614 89.1932C23.5005 89.0795 23.6733 88.9186 23.7798 88.7102C23.8887 88.4995 23.9432 88.2486 23.9432 87.9574C23.9432 87.6662 23.8887 87.4117 23.7798 87.1939C23.6709 86.9761 23.4969 86.808 23.2578 86.6896C23.0187 86.5689 22.7027 86.5085 22.3097 86.5085H20.7614V93H19.8807ZM23.304 89.733L25.0938 93H24.071L22.3097 89.733H23.304ZM28.3919 93.1136C27.8663 93.1136 27.4129 92.9976 27.0318 92.7656C26.653 92.5312 26.3606 92.2045 26.1547 91.7855C25.9511 91.3641 25.8493 90.8741 25.8493 90.3153C25.8493 89.7566 25.9511 89.2642 26.1547 88.8381C26.3606 88.4096 26.6471 88.0758 27.014 87.8366C27.3833 87.5952 27.8142 87.4744 28.3066 87.4744C28.5907 87.4744 28.8713 87.5218 29.1483 87.6165C29.4252 87.7112 29.6774 87.8651 29.9047 88.0781C30.1319 88.2888 30.313 88.5682 30.448 88.9162C30.5829 89.2642 30.6504 89.6927 30.6504 90.2017V90.5568H26.4458V89.8324H29.7981C29.7981 89.5246 29.7366 89.25 29.6135 89.0085C29.4927 88.767 29.3199 88.5765 29.095 88.4368C28.8725 88.2971 28.6097 88.2273 28.3066 88.2273C27.9728 88.2273 27.684 88.3101 27.4402 88.4759C27.1987 88.6392 27.0128 88.8523 26.8826 89.1151C26.7524 89.3778 26.6873 89.6596 26.6873 89.9602V90.4432C26.6873 90.8551 26.7583 91.2043 26.9004 91.4908C27.0448 91.7749 27.2449 91.9915 27.5005 92.1406C27.7562 92.2874 28.0533 92.3608 28.3919 92.3608C28.612 92.3608 28.8109 92.33 28.9885 92.2685C29.1684 92.2045 29.3234 92.1098 29.4537 91.9844C29.5839 91.8565 29.6845 91.6979 29.7555 91.5085L30.5652 91.7358C30.4799 92.0104 30.3367 92.2519 30.1355 92.4602C29.9342 92.6662 29.6857 92.8272 29.3897 92.9432C29.0938 93.0568 28.7612 93.1136 28.3919 93.1136ZM33.5304 93.1278C33.1847 93.1278 32.871 93.0627 32.5893 92.9325C32.3076 92.8 32.0839 92.6094 31.9181 92.3608C31.7524 92.1098 31.6696 91.8068 31.6696 91.4517C31.6696 91.1392 31.7311 90.8859 31.8542 90.6918C31.9773 90.4953 32.1419 90.3414 32.3478 90.2301C32.5538 90.1188 32.7811 90.036 33.0297 89.9815C33.2806 89.9247 33.5327 89.8797 33.786 89.8466C34.1175 89.804 34.3862 89.772 34.5922 89.7507C34.8005 89.727 34.952 89.688 35.0467 89.6335C35.1438 89.5791 35.1923 89.4844 35.1923 89.3494V89.321C35.1923 88.9706 35.0964 88.6984 34.9047 88.5043C34.7153 88.3101 34.4276 88.2131 34.0417 88.2131C33.6416 88.2131 33.3279 88.3007 33.1007 88.4759C32.8734 88.651 32.7136 88.8381 32.6213 89.0369L31.8258 88.7528C31.9679 88.4214 32.1573 88.1634 32.394 87.9787C32.6331 87.7917 32.8935 87.6615 33.1752 87.5881C33.4593 87.5123 33.7387 87.4744 34.0133 87.4744C34.1885 87.4744 34.3897 87.4957 34.617 87.5384C34.8467 87.5786 35.068 87.6626 35.2811 87.7905C35.4965 87.9183 35.6752 88.1113 35.8173 88.3693C35.9593 88.6274 36.0304 88.973 36.0304 89.4062V93H35.1923V92.2614H35.1497C35.0929 92.3797 34.9982 92.5064 34.8656 92.6413C34.733 92.7763 34.5566 92.8911 34.3365 92.9858C34.1163 93.0805 33.8476 93.1278 33.5304 93.1278ZM33.6582 92.375C33.9896 92.375 34.269 92.3099 34.4963 92.1797C34.7259 92.0495 34.8987 91.8814 35.0147 91.6754C35.1331 91.4695 35.1923 91.2528 35.1923 91.0256V90.2585C35.1568 90.3011 35.0787 90.3402 34.9579 90.3757C34.8395 90.4089 34.7022 90.4384 34.546 90.4645C34.3921 90.4882 34.2418 90.5095 34.095 90.5284C33.9506 90.545 33.8334 90.5592 33.7434 90.571C33.5256 90.5994 33.322 90.6456 33.1326 90.7095C32.9456 90.7711 32.7941 90.8646 32.6781 90.9901C32.5645 91.1132 32.5076 91.2812 32.5076 91.4943C32.5076 91.7855 32.6154 92.0057 32.8308 92.1548C33.0486 92.3016 33.3244 92.375 33.6582 92.375ZM39.7759 93.1136C39.2646 93.1136 38.8242 92.9929 38.4549 92.7514C38.0856 92.5099 37.8015 92.1773 37.6026 91.7536C37.4038 91.3298 37.3043 90.8456 37.3043 90.3011C37.3043 89.7472 37.4061 89.2583 37.6097 88.8345C37.8157 88.4084 38.1022 88.0758 38.4691 87.8366C38.8384 87.5952 39.2693 87.4744 39.7617 87.4744C40.1452 87.4744 40.4909 87.5455 40.7987 87.6875C41.1064 87.8295 41.3585 88.0284 41.555 88.2841C41.7515 88.5398 41.8735 88.8381 41.9208 89.179H41.0827C41.0188 88.9304 40.8768 88.7102 40.6566 88.5185C40.4388 88.3243 40.1452 88.2273 39.7759 88.2273C39.4492 88.2273 39.1628 88.3125 38.9165 88.483C38.6727 88.651 38.4821 88.889 38.3448 89.1967C38.2099 89.5021 38.1424 89.8608 38.1424 90.2727C38.1424 90.6941 38.2087 91.0611 38.3413 91.3736C38.4762 91.6861 38.6656 91.9287 38.9094 92.1016C39.1557 92.2744 39.4445 92.3608 39.7759 92.3608C39.9937 92.3608 40.1914 92.3229 40.369 92.2472C40.5465 92.1714 40.6969 92.0625 40.82 91.9205C40.9431 91.7784 41.0307 91.608 41.0827 91.4091H41.9208C41.8735 91.7311 41.7563 92.0211 41.5692 92.2791C41.3846 92.5348 41.1396 92.7384 40.8342 92.8899C40.5311 93.0391 40.1784 93.1136 39.7759 93.1136ZM45.5181 87.5455V88.2557H42.6914V87.5455H45.5181ZM43.5153 86.2386H44.3533V91.4375C44.3533 91.6742 44.3877 91.8518 44.4563 91.9702C44.5273 92.0862 44.6173 92.1643 44.7262 92.2045C44.8375 92.2424 44.9547 92.2614 45.0778 92.2614C45.1701 92.2614 45.2459 92.2566 45.305 92.2472C45.3642 92.2353 45.4116 92.2259 45.4471 92.2188L45.6175 92.9716C45.5607 92.9929 45.4814 93.0142 45.3796 93.0355C45.2778 93.0592 45.1488 93.071 44.9925 93.071C44.7558 93.071 44.5238 93.0201 44.2965 92.9183C44.0716 92.8165 43.8846 92.6615 43.7354 92.4531C43.5887 92.2448 43.5153 91.982 43.5153 91.6648V86.2386ZM55.4719 85.7273V93H54.6197L50.6566 87.2898H50.5856V93H49.7049V85.7273H50.5572L54.5344 91.4517H54.6055V85.7273H55.4719ZM58.7257 93.1278C58.38 93.1278 58.0663 93.0627 57.7846 92.9325C57.5029 92.8 57.2792 92.6094 57.1135 92.3608C56.9477 92.1098 56.8649 91.8068 56.8649 91.4517C56.8649 91.1392 56.9264 90.8859 57.0495 90.6918C57.1726 90.4953 57.3372 90.3414 57.5431 90.2301C57.7491 90.1188 57.9764 90.036 58.225 89.9815C58.4759 89.9247 58.728 89.8797 58.9814 89.8466C59.3128 89.804 59.5815 89.772 59.7875 89.7507C59.9958 89.727 60.1473 89.688 60.242 89.6335C60.3391 89.5791 60.3876 89.4844 60.3876 89.3494V89.321C60.3876 88.9706 60.2917 88.6984 60.1 88.5043C59.9106 88.3101 59.6229 88.2131 59.237 88.2131C58.8369 88.2131 58.5233 88.3007 58.296 88.4759C58.0687 88.651 57.9089 88.8381 57.8166 89.0369L57.0211 88.7528C57.1632 88.4214 57.3526 88.1634 57.5893 87.9787C57.8284 87.7917 58.0888 87.6615 58.3706 87.5881C58.6547 87.5123 58.934 87.4744 59.2086 87.4744C59.3838 87.4744 59.585 87.4957 59.8123 87.5384C60.042 87.5786 60.2633 87.6626 60.4764 87.7905C60.6918 87.9183 60.8706 88.1113 61.0126 88.3693C61.1547 88.6274 61.2257 88.973 61.2257 89.4062V93H60.3876V92.2614H60.345C60.2882 92.3797 60.1935 92.5064 60.0609 92.6413C59.9283 92.7763 59.752 92.8911 59.5318 92.9858C59.3116 93.0805 59.0429 93.1278 58.7257 93.1278ZM58.8535 92.375C59.185 92.375 59.4643 92.3099 59.6916 92.1797C59.9212 92.0495 60.094 91.8814 60.21 91.6754C60.3284 91.4695 60.3876 91.2528 60.3876 91.0256V90.2585C60.3521 90.3011 60.274 90.3402 60.1532 90.3757C60.0349 90.4089 59.8975 90.4384 59.7413 90.4645C59.5874 90.4882 59.4371 90.5095 59.2903 90.5284C59.1459 90.545 59.0287 90.5592 58.9387 90.571C58.7209 90.5994 58.5173 90.6456 58.3279 90.7095C58.1409 90.7711 57.9894 90.8646 57.8734 90.9901C57.7598 91.1132 57.7029 91.2812 57.7029 91.4943C57.7029 91.7855 57.8107 92.0057 58.0261 92.1548C58.2439 92.3016 58.5197 92.375 58.8535 92.375ZM65.1275 87.5455V88.2557H62.3008V87.5455H65.1275ZM63.1246 86.2386H63.9627V91.4375C63.9627 91.6742 63.997 91.8518 64.0657 91.9702C64.1367 92.0862 64.2267 92.1643 64.3356 92.2045C64.4469 92.2424 64.564 92.2614 64.6871 92.2614C64.7795 92.2614 64.8552 92.2566 64.9144 92.2472C64.9736 92.2353 65.021 92.2259 65.0565 92.2188L65.2269 92.9716C65.1701 92.9929 65.0908 93.0142 64.989 93.0355C64.8872 93.0592 64.7582 93.071 64.6019 93.071C64.3652 93.071 64.1332 93.0201 63.9059 92.9183C63.681 92.8165 63.494 92.6615 63.3448 92.4531C63.198 92.2448 63.1246 91.982 63.1246 91.6648V86.2386ZM66.3881 93V87.5455H67.2262V93H66.3881ZM66.8143 86.6364C66.6509 86.6364 66.5101 86.5807 66.3917 86.4695C66.2757 86.3582 66.2177 86.2244 66.2177 86.0682C66.2177 85.9119 66.2757 85.7782 66.3917 85.6669C66.5101 85.5556 66.6509 85.5 66.8143 85.5C66.9776 85.5 67.1173 85.5556 67.2333 85.6669C67.3517 85.7782 67.4109 85.9119 67.4109 86.0682C67.4109 86.2244 67.3517 86.3582 67.2333 86.4695C67.1173 86.5807 66.9776 86.6364 66.8143 86.6364ZM73.2214 87.5455L71.2044 93H70.3521L68.335 87.5455H69.2441L70.7498 91.892H70.8066L72.3123 87.5455H73.2214ZM76.4192 93.1136C75.8936 93.1136 75.4403 92.9976 75.0591 92.7656C74.6803 92.5312 74.388 92.2045 74.182 91.7855C73.9784 91.3641 73.8766 90.8741 73.8766 90.3153C73.8766 89.7566 73.9784 89.2642 74.182 88.8381C74.388 88.4096 74.6744 88.0758 75.0414 87.8366C75.4107 87.5952 75.8416 87.4744 76.334 87.4744C76.6181 87.4744 76.8986 87.5218 77.1756 87.6165C77.4526 87.7112 77.7047 87.8651 77.932 88.0781C78.1593 88.2888 78.3404 88.5682 78.4753 88.9162C78.6103 89.2642 78.6777 89.6927 78.6777 90.2017V90.5568H74.4732V89.8324H77.8255C77.8255 89.5246 77.7639 89.25 77.6408 89.0085C77.5201 88.767 77.3472 88.5765 77.1223 88.4368C76.8998 88.2971 76.637 88.2273 76.334 88.2273C76.0002 88.2273 75.7114 88.3101 75.4675 88.4759C75.226 88.6392 75.0402 88.8523 74.91 89.1151C74.7798 89.3778 74.7147 89.6596 74.7147 89.9602V90.4432C74.7147 90.8551 74.7857 91.2043 74.9277 91.4908C75.0721 91.7749 75.2722 91.9915 75.5279 92.1406C75.7836 92.2874 76.0807 92.3608 76.4192 92.3608C76.6394 92.3608 76.8382 92.33 77.0158 92.2685C77.1957 92.2045 77.3508 92.1098 77.481 91.9844C77.6112 91.8565 77.7118 91.6979 77.7828 91.5085L78.5925 91.7358C78.5073 92.0104 78.3641 92.2519 78.1628 92.4602C77.9616 92.6662 77.713 92.8272 77.4171 92.9432C77.1212 93.0568 76.7885 93.1136 76.4192 93.1136Z" fill="#61DAFB"/>
<path d="M93.76 39.0859C93.76 33.2722 86.4795 27.7626 75.3172 24.346C77.8931 12.969 76.7482 3.91754 71.7037 1.01963C70.541 0.339877 69.1815 0.017888 67.6967 0.017888V4.00698C68.5196 4.00698 69.1815 4.16797 69.736 4.47207C72.1688 5.86736 73.2242 11.1802 72.4014 18.0135C72.2046 19.695 71.8826 21.466 71.4891 23.2727C67.983 22.414 64.1549 21.7522 60.13 21.3229C57.7151 18.0135 55.2107 15.0083 52.6885 12.3787C58.5201 6.95855 63.9939 3.98909 67.7146 3.98909V0C62.7954 0 56.3556 3.50611 49.8442 9.58813C43.3329 3.54188 36.8931 0.0715535 31.9738 0.0715535V4.06064C35.6767 4.06064 41.1684 7.01221 47 12.3966C44.4956 15.0262 41.9913 18.0135 39.6121 21.3229C35.5694 21.7522 31.7413 22.414 28.2352 23.2906C27.8237 21.5017 27.5196 19.7666 27.305 18.103C26.4642 11.2696 27.5017 5.9568 29.9167 4.54363C30.4533 4.22164 31.151 4.07853 31.9738 4.07853V0.0894415C30.4712 0.0894415 29.1117 0.411431 27.9311 1.09119C22.9044 3.98909 21.7775 13.0227 24.3713 24.3639C13.2448 27.7984 6 33.2901 6 39.0859C6 44.8996 13.2805 50.4092 24.4428 53.8259C21.8669 65.2028 23.0118 74.2543 28.0563 77.1522C29.219 77.832 30.5785 78.154 32.0811 78.154C37.0004 78.154 43.4402 74.6479 49.9516 68.5658C56.4629 74.6121 62.9027 78.0824 67.822 78.0824C69.3246 78.0824 70.6841 77.7604 71.8647 77.0807C76.8913 74.1828 78.0183 65.1492 75.4245 53.808C86.5152 50.3913 93.76 44.8817 93.76 39.0859ZM70.4694 27.1544C69.8076 29.462 68.9847 31.8412 68.0545 34.2203C67.3211 32.7892 66.5519 31.3582 65.7111 29.9271C64.8883 28.4961 64.0118 27.1008 63.1352 25.7413C65.6754 26.1169 68.1261 26.582 70.4694 27.1544ZM62.2766 46.2055C60.8813 48.6204 59.4502 50.9101 57.9655 53.0388C55.3002 53.2714 52.599 53.3966 49.88 53.3966C47.1789 53.3966 44.4777 53.2714 41.8303 53.0567C40.3455 50.928 38.8966 48.6562 37.5013 46.2591C36.1418 43.9158 34.9075 41.5366 33.7805 39.1396C34.8896 36.7426 36.1418 34.3455 37.4834 32.0022C38.8787 29.5872 40.3098 27.2975 41.7945 25.1688C44.4598 24.9363 47.161 24.8111 49.88 24.8111C52.5811 24.8111 55.2823 24.9363 57.9297 25.1509C59.4145 27.2797 60.8634 29.5515 62.2587 31.9485C63.6182 34.2919 64.8525 36.671 65.9795 39.068C64.8525 41.4651 63.6182 43.8621 62.2766 46.2055ZM68.0545 43.88C69.0205 46.277 69.8434 48.6741 70.5231 50.9995C68.1797 51.572 65.7112 52.055 63.1531 52.4306C64.0297 51.0532 64.9062 49.64 65.729 48.1911C66.5519 46.76 67.3211 45.3111 68.0545 43.88ZM49.9158 62.9668C48.2522 61.2495 46.5886 59.3355 44.9428 57.2426C46.5528 57.3141 48.1985 57.3678 49.8621 57.3678C51.5436 57.3678 53.2072 57.332 54.8351 57.2426C53.2251 59.3355 51.5615 61.2495 49.9158 62.9668ZM36.6069 52.4306C34.0667 52.055 31.616 51.5899 29.2727 51.0174C29.9345 48.7098 30.7574 46.3307 31.6876 43.9516C32.421 45.3826 33.1902 46.8137 34.031 48.2447C34.8717 49.6758 35.7304 51.0711 36.6069 52.4306ZM49.8263 15.2051C51.49 16.9223 53.1536 18.8364 54.7993 20.9293C53.1893 20.8578 51.5436 20.8041 49.88 20.8041C48.1985 20.8041 46.5349 20.8399 44.9071 20.9293C46.517 18.8364 48.1806 16.9223 49.8263 15.2051ZM36.589 25.7413C35.7125 27.1187 34.8359 28.5318 34.0131 29.9808C33.1902 31.4119 32.421 32.8429 31.6876 34.274C30.7216 31.8769 29.8988 29.4799 29.219 27.1544C31.5624 26.5999 34.031 26.1169 36.589 25.7413ZM20.4001 48.1374C14.0676 45.4363 9.9712 41.8944 9.9712 39.0859C9.9712 36.2775 14.0676 32.7177 20.4001 30.0345C21.9385 29.3726 23.62 28.7823 25.3551 28.2277C26.3748 31.7338 27.7164 35.3831 29.38 39.1217C27.7343 42.8425 26.4106 46.4738 25.4088 49.962C23.6379 49.4075 21.9564 48.7993 20.4001 48.1374ZM30.024 73.6998C27.5912 72.3045 26.5358 66.9917 27.3586 60.1583C27.5554 58.4768 27.8774 56.7059 28.2709 54.8992C31.777 55.7578 35.6051 56.4197 39.63 56.849C42.0449 60.1583 44.5493 63.1636 47.0715 65.7932C41.24 71.2133 35.7661 74.1828 32.0454 74.1828C31.2404 74.1649 30.5606 74.0039 30.024 73.6998ZM72.455 60.0689C73.2958 66.9022 72.2583 72.2151 69.8433 73.6282C69.3067 73.9502 68.609 74.0933 67.7862 74.0933C64.0833 74.0933 58.5916 71.1418 52.76 65.7574C55.2644 63.1278 57.7687 60.1405 60.1479 56.8311C64.1906 56.4018 68.0187 55.7399 71.5248 54.8634C71.9363 56.6701 72.2583 58.4053 72.455 60.0689ZM79.342 48.1374C77.8036 48.7993 76.1221 49.3896 74.387 49.9441C73.3673 46.438 72.0257 42.7888 70.3621 39.0502C72.0078 35.3294 73.3316 31.6981 74.3333 28.2098C76.1043 28.7644 77.7857 29.3726 79.3599 30.0345C85.6924 32.7356 89.7888 36.2775 89.7888 39.0859C89.7709 41.8944 85.6745 45.4542 79.342 48.1374Z" fill="#61DAFB"/>
<path d="M49.8622 47.2599C54.3771 47.2599 58.0372 43.5999 58.0372 39.085C58.0372 34.5701 54.3771 30.91 49.8622 30.91C45.3473 30.91 41.6873 34.5701 41.6873 39.085C41.6873 43.5999 45.3473 47.2599 49.8622 47.2599Z" fill="#61DAFB"/>
</svg>
