<svg width="100" height="100" viewBox="0 0 100 100" fill="none" xmlns="http://www.w3.org/2000/svg">
<path d="M0.951417 35.4985C0.951417 35.4985 -1.48421 33.7428 1.43854 31.3985L8.24815 25.3094C8.24815 25.3094 10.1967 23.2595 12.2568 25.0456L75.096 72.6215V95.4352C75.096 95.4352 75.0655 99.0176 70.4683 98.6218L0.951417 35.4985Z" fill="#2489CA"/>
<path d="M17.1483 50.2036L0.951379 64.929C0.951379 64.929 -0.712966 66.1671 0.951379 68.3795L8.47138 75.2195C8.47138 75.2195 10.2575 77.1376 12.8961 74.9557L30.0673 61.9352L17.1483 50.2036Z" fill="#1070B3"/>
<path d="M45.5842 50.3252L75.2887 27.6434L75.0959 4.95149C75.0959 4.95149 73.8274 -0.000955313 69.5955 2.57675L30.0673 38.553L45.5842 50.3252Z" fill="#0877B9"/>
<path d="M70.4682 98.6523C72.1935 100.418 74.284 99.8396 74.284 99.8396L97.4326 88.4328C100.396 86.4132 99.9799 83.9066 99.9799 83.9066V15.7902C99.9799 12.7964 96.9151 11.7613 96.9151 11.7613L76.8516 2.08978C72.4675 -0.619853 69.5955 2.57691 69.5955 2.57691C69.5955 2.57691 73.2895 -0.0819848 75.0959 4.95165V95.0191C75.0959 95.6382 74.964 96.2471 74.7001 96.7951C74.1724 97.8607 73.0256 98.8552 70.2754 98.4391L70.4682 98.6523Z" fill="#3C99D4"/>
</svg>
